<?xml version="1.0" encoding="utf-8"?><!DOCTYPE svg PUBLIC "-//W3C//DTD SVG 1.1//EN" "http://www.w3.org/Graphics/SVG/1.1/DTD/svg11.dtd"><svg version="1.1" xmlns="http://www.w3.org/2000/svg" xmlns:xlink="http://www.w3.org/1999/xlink" x="0px" y="0px" viewBox="0 3.229 100 88.542" enable-background="new 0 3.229 100 88.542" xml:space="preserve"><g><path d="M96.875,72.892c0-5.03,0-12.674,0-17.778c0-7.977-1.16-13.449-12.365-19.698c-1.137-7.55-3.12-20.391-3.237-21.521
		c-0.169-1.607-1.454-3.121-3.666-4C76.011,9.26,65.383,8.027,59.593,7.39c-0.334-1.114-0.705-2.437-0.773-2.634
		c-0.314-0.907-0.628-1.527-1.634-1.527c-1.007,0-7.188,0-7.188,0s-6.186,0-7.19,0c-1.006,0-1.313,0.62-1.627,1.527
		c-0.068,0.197-0.433,1.461-0.764,2.574c-5.794,0.638-16.404,1.901-17.999,2.535c-2.213,0.879-3.471,2.409-3.638,4.016
		c-0.116,1.128-2.157,13.978-3.292,21.528C4.281,41.657,3.125,47.135,3.125,55.113c0,5.104,0,12.748,0,17.778
		C1.042,73.818,0,74.962,0,76.151v2.896c0,0.992,1.355,1.265,3.185,1.265H5.58h2.753v9.349c0,1.204,0.999,2.109,2.204,2.109h11.274
		c1.206,0,2.147-0.905,2.147-2.109v-9.349h9.264h1.153v5.208h15.623h15.627v-5.208h1.147h9.27v9.349c0,1.204,0.934,2.109,2.14,2.109
		h11.274c1.204,0,2.211-0.905,2.211-2.109v-9.349h2.748h2.393c1.831,0,3.192-0.272,3.192-1.265v-2.896
		C100,74.962,98.958,73.818,96.875,72.892z M14.265,54.658c-2.611,0-4.729-2.119-4.729-4.73c0-2.611,2.117-4.727,4.729-4.727
		s4.728,2.117,4.728,4.727C18.993,52.538,16.877,54.658,14.265,54.658z M46.875,68.854h-9.517c-1.807,0-1.941-0.57-1.941-2.379v-19
		c0-1.808,0.229-2.454,2.275-2.909c2.044-0.456,9.183-1.09,9.183-1.09V68.854z M64.583,66.476c0,1.809-0.142,2.379-1.95,2.379
		h-9.508V43.476c0,0,7.139,0.634,9.184,1.089c2.047,0.455,2.274,1.101,2.274,2.91V66.476z M74.09,31.381
		c0,0-14.368,0.363-24.092,0.363c-9.724,0-24.094-0.363-24.094-0.363c-1.809,0-4.093-1.364-3.638-4.364l0.729-7
		c0.454-3.273,1.227-4.637,3.271-5.092c2.046-0.454,16.79-1.454,23.732-1.454c6.941,0,21.683,1.001,23.729,1.454
		c2.047,0.456,2.817,1.819,3.272,5.092l0.727,7C78.182,30.018,75.897,31.381,74.09,31.381z M85.728,54.658
		c-2.61,0-4.728-2.119-4.728-4.73c0-2.611,2.117-4.727,4.728-4.727c2.612,0,4.729,2.117,4.729,4.727
		C90.457,52.538,88.34,54.658,85.728,54.658z"></path></g></svg>