<?xml version="1.0" standalone="no"?>
<!DOCTYPE svg PUBLIC "-//W3C//DTD SVG 20010904//EN"
 "http://www.w3.org/TR/2001/REC-SVG-20010904/DTD/svg10.dtd">
<svg version="1.0" xmlns="http://www.w3.org/2000/svg"
 width="16.000000pt" height="16.000000pt" viewBox="0 0 16.000000 16.000000"
 preserveAspectRatio="xMidYMid meet">
<metadata>
Created by potrace 1.11, written by Peter Selinger 2001-2013
</metadata>
<g transform="translate(0.000000,16.000000) scale(0.002000,-0.002000)"
fill="#000000" stroke="none">
<path d="M3380 7533 c-47 -17 -73 -66 -115 -213 -14 -52 -30 -98 -33 -101 -6
-6 -72 -17 -147 -24 -36 -3 -127 -14 -175 -20 -19 -3 -57 -7 -85 -10 -57 -6
-128 -15 -165 -20 -34 -5 -141 -19 -162 -21 -10 -1 -19 -2 -20 -3 -2 -1 -25
-4 -51 -6 -27 -2 -60 -6 -75 -9 -15 -3 -47 -8 -72 -11 -25 -3 -70 -10 -100
-15 -30 -5 -75 -12 -100 -15 -45 -6 -133 -21 -180 -30 -14 -3 -38 -8 -55 -11
-63 -11 -175 -75 -233 -132 -76 -75 -100 -127 -118 -257 -1 -11 -8 -54 -14
-95 -13 -83 -14 -93 -25 -165 -4 -27 -9 -61 -11 -75 -3 -14 -7 -38 -9 -55 -3
-16 -10 -64 -16 -105 -6 -41 -13 -86 -15 -100 -1 -14 -5 -38 -8 -55 -11 -66
-30 -192 -41 -270 -3 -22 -10 -65 -15 -95 -5 -30 -12 -75 -15 -100 -3 -25 -8
-52 -10 -60 -2 -8 -7 -37 -10 -65 -10 -68 -12 -85 -19 -121 -3 -17 -8 -46 -10
-65 -8 -54 -16 -110 -26 -168 -6 -30 -8 -57 -5 -59 5 -5 -58 -52 -70 -52 -6 0
-92 -54 -162 -102 -23 -15 -46 -28 -52 -28 -6 0 -11 -4 -11 -8 0 -4 -12 -15
-28 -24 -15 -9 -36 -24 -47 -32 -11 -9 -45 -35 -75 -58 -86 -67 -197 -176
-261 -258 -33 -41 -64 -81 -70 -88 -24 -30 -102 -186 -128 -259 -44 -120 -79
-301 -85 -448 -2 -33 -4 -419 -5 -857 l-1 -797 -62 -33 c-71 -38 -137 -97
-166 -149 -17 -30 -20 -57 -21 -171 -2 -170 1 -183 51 -209 51 -26 150 -34
409 -33 l205 0 -1 -375 c0 -207 3 -392 8 -411 13 -50 42 -87 85 -107 34 -17
79 -18 542 -18 l505 0 41 30 c68 48 68 52 70 485 1 212 2 387 3 390 1 3 188 6
416 6 l415 0 0 -203 c0 -202 0 -204 23 -212 12 -5 29 -5 39 0 10 5 19 5 23 0
3 -6 17 -6 35 -1 17 5 30 6 30 2 0 -4 16 -7 35 -7 19 0 35 4 35 8 0 5 5 5 10
2 9 -6 47 -7 130 -5 8 1 45 0 83 -2 37 -2 67 0 67 4 0 4 13 3 29 -2 15 -4 34
-4 41 0 6 4 27 4 46 0 19 -4 36 -4 39 0 3 5 18 5 34 0 15 -4 34 -4 40 0 7 4
30 4 52 0 21 -4 39 -4 39 1 0 4 13 4 29 -1 15 -4 34 -4 41 0 6 4 27 4 46 0 19
-4 36 -4 39 0 3 5 18 5 34 0 15 -4 34 -4 40 0 12 7 70 4 78 -4 3 -2 18 0 34 4
16 5 29 5 29 0 0 -4 15 -4 34 0 19 4 40 4 46 0 7 -4 26 -4 41 0 16 5 29 6 29
2 0 -8 68 -7 76 1 3 3 16 2 28 -3 12 -4 29 -4 37 0 8 5 21 5 28 0 8 -4 27 -4
42 0 16 5 29 6 29 2 0 -4 16 -7 35 -7 19 0 35 3 35 7 0 4 13 3 29 -2 15 -4 34
-4 42 0 7 5 17 6 22 3 13 -8 147 -9 147 -1 0 4 13 3 29 -2 15 -4 34 -4 42 0 7
5 17 6 22 3 13 -8 87 -9 87 -1 0 4 13 3 30 -2 17 -5 32 -5 35 0 3 5 16 5 28 1
12 -5 34 -5 49 0 16 4 28 5 28 1 0 -4 17 -6 37 -5 60 3 115 3 163 1 l45 -2 2
198 c1 109 4 204 6 210 4 9 107 12 418 12 l414 -1 0 -395 c1 -439 -1 -428 68
-484 l39 -31 511 0 512 0 37 23 c20 12 46 39 59 60 22 37 22 42 22 429 0 216
3 394 6 394 3 1 112 3 241 4 314 4 349 9 398 54 21 21 22 30 22 158 0 77 -5
153 -12 176 -16 54 -96 133 -175 175 l-63 33 -1 787 c-1 785 -2 854 -14 967
-11 98 -13 119 -19 145 -4 14 -9 39 -12 55 -21 116 -102 300 -188 425 -97 143
-354 375 -531 480 -22 13 -42 27 -45 31 -4 6 -45 29 -134 76 -29 16 -46 36
-50 59 -4 24 -15 98 -21 148 -3 22 -8 53 -12 70 -3 17 -6 43 -7 59 0 15 -3 27
-6 27 -3 0 -6 12 -6 28 -1 15 -4 41 -7 57 -3 17 -8 53 -12 80 -3 28 -8 57 -10
65 -2 8 -6 35 -9 60 -3 25 -8 56 -11 70 -3 14 -7 43 -10 65 -3 22 -7 51 -9 65
-3 14 -7 41 -10 60 -2 19 -8 58 -12 85 -3 28 -8 59 -11 70 -2 11 -6 36 -9 55
-2 19 -6 50 -9 68 -3 17 -7 48 -10 67 -8 58 -15 99 -19 125 -3 14 -8 48 -11
75 -4 28 -9 59 -10 70 -2 11 -6 38 -9 60 -13 91 -18 124 -31 200 -7 43 -51
113 -105 165 -53 51 -159 115 -205 124 -11 3 -42 10 -70 16 -27 6 -63 14 -80
16 -16 3 -39 6 -50 8 -29 5 -137 20 -157 22 -10 1 -19 2 -20 3 -2 2 -16 4 -33
6 -16 2 -48 6 -70 9 -62 9 -116 16 -160 21 -22 2 -51 6 -65 9 -14 3 -56 7 -93
10 -38 3 -71 8 -75 10 -4 2 -38 7 -77 10 -38 4 -81 9 -95 11 -14 3 -50 7 -80
10 -30 2 -75 7 -100 10 -25 3 -57 8 -72 10 -15 1 -32 6 -37 10 -6 3 -11 2 -11
-3 0 -6 -14 -6 -37 0 l-38 9 -33 117 c-37 127 -69 187 -108 202 -27 10 -1217
13 -1244 3z m525 -813 c17 3 40 3 53 -2 12 -4 22 -4 22 0 0 5 15 7 33 5 17 -2
38 -4 45 -3 6 0 18 0 25 0 6 1 98 -2 202 -5 185 -5 254 -8 460 -20 55 -3 138
-7 185 -10 118 -6 266 -15 325 -20 28 -3 88 -7 135 -10 47 -3 105 -7 130 -9
25 -2 79 -7 120 -11 239 -20 310 -36 369 -79 68 -50 106 -127 136 -272 9 -43
19 -106 21 -139 3 -33 7 -73 8 -90 5 -47 17 -156 21 -200 3 -22 7 -67 10 -100
6 -58 13 -119 18 -160 4 -33 -13 -117 -33 -155 -37 -72 -137 -137 -224 -146
-23 -3 -116 -6 -208 -8 -91 -2 -171 -7 -177 -10 -6 -4 -11 -2 -11 4 0 6 -4 9
-9 5 -29 -18 -2056 -26 -2766 -12 -192 4 -440 10 -550 12 -110 2 -210 7 -222
10 -13 3 -32 7 -44 10 -11 2 -40 15 -62 29 -95 55 -139 136 -138 250 1 39 3
82 6 96 3 14 7 54 10 90 2 36 6 76 9 90 3 14 7 57 11 95 3 39 8 88 10 110 3
22 7 60 10 85 2 25 7 61 10 80 4 19 8 44 9 55 5 37 38 139 57 176 25 50 76 99
126 121 40 18 198 44 313 53 30 2 96 7 145 11 50 4 107 8 127 8 21 1 38 3 38
6 0 3 26 5 58 6 31 0 102 4 157 8 55 4 143 9 195 11 52 3 127 7 165 10 76 5
276 14 473 20 68 2 126 6 129 9 3 3 13 2 22 -3 9 -4 30 -5 46 -1z m-158 -3417
l3 -1013 -408 1 c-461 2 -471 3 -494 67 -20 58 -20 1713 0 1762 21 52 57 85
102 94 3 1 10 4 15 7 6 4 26 9 45 13 19 3 44 8 55 10 11 2 43 7 70 10 80 10
208 27 240 31 17 3 57 7 90 9 105 9 200 18 203 21 1 1 19 2 40 1 l37 -1 2
-1012z m688 1001 c22 -2 60 -6 85 -9 25 -2 70 -7 100 -11 30 -3 71 -8 90 -10
90 -9 127 -14 155 -19 17 -3 44 -7 60 -10 116 -20 171 -41 202 -80 15 -18 29
-41 31 -52 3 -10 5 -403 6 -873 2 -774 1 -858 -14 -885 -33 -62 -37 -62 -490
-63 l-410 0 0 1015 0 1014 73 -6 c39 -3 90 -8 112 -11z m-3179 -140 c106 -35
179 -100 228 -204 27 -58 31 -75 30 -156 0 -82 -3 -98 -32 -157 -122 -246
-432 -294 -618 -96 -168 181 -115 479 104 589 93 47 195 56 288 24z m5669 12
c54 -8 104 -29 155 -66 149 -108 197 -305 115 -472 -35 -71 -106 -140 -182
-176 -50 -23 -71 -27 -148 -27 -49 1 -101 4 -115 8 -93 26 -188 110 -234 207
-28 59 -31 73 -30 160 1 68 6 104 17 125 9 17 17 35 17 40 0 33 104 135 171
167 55 28 146 48 184 42 11 -2 34 -5 50 -8z"/>
</g>
</svg>
